<mxfile host="www.draw.io" modified="2019-11-27T17:44:29.985Z" agent="Mozilla/5.0 (Windows NT 10.0; Win64; x64) AppleWebKit/537.36 (KHTML, like Gecko) Chrome/78.0.3904.108 Safari/537.36" etag="boImL3AsQu4YR6zgoUBo" version="12.3.2" type="github" pages="1">
  <diagram id="7QuHZo5SJ8vDTnDqI6yM" name="Page-1">
    <mxGraphModel dx="2194" dy="1094" grid="0" gridSize="10" guides="1" tooltips="1" connect="1" arrows="1" fold="1" page="1" pageScale="1" pageWidth="827" pageHeight="1169" math="0" shadow="0">
      <root>
        <mxCell id="0"/>
        <mxCell id="1" parent="0"/>
        <mxCell id="N-NTgORlRnpznjwGjGEB-21" value="" style="rounded=1;whiteSpace=wrap;html=1;strokeWidth=1;fillColor=#FCFCFC;arcSize=7;strokeColor=#666666;fontColor=#333333;" parent="1" vertex="1">
          <mxGeometry x="142.5" y="655" width="543" height="332" as="geometry"/>
        </mxCell>
        <mxCell id="N-NTgORlRnpznjwGjGEB-35" style="edgeStyle=orthogonalEdgeStyle;rounded=0;orthogonalLoop=1;jettySize=auto;html=1;exitX=0.5;exitY=1;exitDx=0;exitDy=0;entryX=0.5;entryY=0;entryDx=0;entryDy=0;" parent="1" source="N-NTgORlRnpznjwGjGEB-4" target="N-NTgORlRnpznjwGjGEB-25" edge="1">
          <mxGeometry relative="1" as="geometry">
            <mxPoint x="260.00006103515625" y="325.5" as="targetPoint"/>
          </mxGeometry>
        </mxCell>
        <mxCell id="N-NTgORlRnpznjwGjGEB-36" style="edgeStyle=orthogonalEdgeStyle;rounded=0;orthogonalLoop=1;jettySize=auto;html=1;exitX=0.5;exitY=1;exitDx=0;exitDy=0;entryX=0.5;entryY=0;entryDx=0;entryDy=0;" parent="1" source="N-NTgORlRnpznjwGjGEB-4" target="N-NTgORlRnpznjwGjGEB-5" edge="1">
          <mxGeometry relative="1" as="geometry"/>
        </mxCell>
        <mxCell id="N-NTgORlRnpznjwGjGEB-4" value="&lt;span style=&quot;font-size: 20px&quot;&gt;サービス開始&lt;/span&gt;" style="rounded=1;whiteSpace=wrap;html=1;arcSize=50;rotation=0;strokeWidth=3;strokeColor=#FF8000;" parent="1" vertex="1">
          <mxGeometry x="339" y="202.5" width="150" height="50" as="geometry"/>
        </mxCell>
        <mxCell id="N-NTgORlRnpznjwGjGEB-38" style="edgeStyle=orthogonalEdgeStyle;rounded=0;orthogonalLoop=1;jettySize=auto;html=1;exitX=0.5;exitY=1;exitDx=0;exitDy=0;entryX=0.5;entryY=0;entryDx=0;entryDy=0;" parent="1" source="N-NTgORlRnpznjwGjGEB-5" target="N-NTgORlRnpznjwGjGEB-32" edge="1">
          <mxGeometry relative="1" as="geometry"/>
        </mxCell>
        <mxCell id="N-NTgORlRnpznjwGjGEB-39" style="edgeStyle=orthogonalEdgeStyle;rounded=0;orthogonalLoop=1;jettySize=auto;html=1;exitX=0.5;exitY=1;exitDx=0;exitDy=0;entryX=0.5;entryY=0;entryDx=0;entryDy=0;" parent="1" source="N-NTgORlRnpznjwGjGEB-5" target="N-NTgORlRnpznjwGjGEB-33" edge="1">
          <mxGeometry relative="1" as="geometry"/>
        </mxCell>
        <mxCell id="N-NTgORlRnpznjwGjGEB-5" value="&lt;font style=&quot;font-size: 20px&quot;&gt;ログイン機能&lt;/font&gt;" style="rounded=0;whiteSpace=wrap;html=1;strokeWidth=3;strokeColor=#00C400;" parent="1" vertex="1">
          <mxGeometry x="485" y="330.5" width="150" height="50" as="geometry"/>
        </mxCell>
        <mxCell id="N-NTgORlRnpznjwGjGEB-37" style="edgeStyle=orthogonalEdgeStyle;rounded=0;orthogonalLoop=1;jettySize=auto;html=1;exitX=1;exitY=0.5;exitDx=0;exitDy=0;entryX=0;entryY=0.5;entryDx=0;entryDy=0;" parent="1" source="N-NTgORlRnpznjwGjGEB-25" target="N-NTgORlRnpznjwGjGEB-5" edge="1">
          <mxGeometry relative="1" as="geometry"/>
        </mxCell>
        <mxCell id="N-NTgORlRnpznjwGjGEB-25" value="&lt;font style=&quot;font-size: 20px&quot;&gt;登録機能&lt;/font&gt;" style="rounded=0;whiteSpace=wrap;html=1;strokeWidth=3;strokeColor=#00C400;" parent="1" vertex="1">
          <mxGeometry x="184" y="330.5" width="151" height="50" as="geometry"/>
        </mxCell>
        <mxCell id="N-NTgORlRnpznjwGjGEB-50" style="edgeStyle=orthogonalEdgeStyle;rounded=0;orthogonalLoop=1;jettySize=auto;html=1;exitX=0.5;exitY=1;exitDx=0;exitDy=0;entryX=0.5;entryY=0;entryDx=0;entryDy=0;" parent="1" source="N-NTgORlRnpznjwGjGEB-26" target="N-NTgORlRnpznjwGjGEB-4" edge="1">
          <mxGeometry relative="1" as="geometry"/>
        </mxCell>
        <mxCell id="N-NTgORlRnpznjwGjGEB-26" value="&lt;font style=&quot;font-size: 18px&quot;&gt;PDCA概要説明&lt;/font&gt;" style="rounded=0;whiteSpace=wrap;html=1;strokeWidth=3;strokeColor=#3399FF;" parent="1" vertex="1">
          <mxGeometry x="338" y="96.5" width="151" height="50" as="geometry"/>
        </mxCell>
        <mxCell id="N-NTgORlRnpznjwGjGEB-45" style="edgeStyle=orthogonalEdgeStyle;rounded=0;orthogonalLoop=1;jettySize=auto;html=1;exitX=1;exitY=0.5;exitDx=0;exitDy=0;entryX=0;entryY=0.5;entryDx=0;entryDy=0;" parent="1" source="N-NTgORlRnpznjwGjGEB-27" target="N-NTgORlRnpznjwGjGEB-29" edge="1">
          <mxGeometry relative="1" as="geometry"/>
        </mxCell>
        <mxCell id="N-NTgORlRnpznjwGjGEB-27" value="&lt;span style=&quot;font-size: 20px&quot;&gt;plan&lt;/span&gt;" style="rounded=0;whiteSpace=wrap;html=1;strokeColor=#6c8ebf;strokeWidth=2;fillColor=#dae8fc;" parent="1" vertex="1">
          <mxGeometry x="186.5" y="729" width="151" height="50" as="geometry"/>
        </mxCell>
        <mxCell id="N-NTgORlRnpznjwGjGEB-47" style="edgeStyle=orthogonalEdgeStyle;rounded=0;orthogonalLoop=1;jettySize=auto;html=1;exitX=0;exitY=0.5;exitDx=0;exitDy=0;entryX=1;entryY=0.5;entryDx=0;entryDy=0;" parent="1" source="N-NTgORlRnpznjwGjGEB-28" target="N-NTgORlRnpznjwGjGEB-30" edge="1">
          <mxGeometry relative="1" as="geometry"/>
        </mxCell>
        <mxCell id="N-NTgORlRnpznjwGjGEB-28" value="&lt;span style=&quot;font-size: 20px&quot;&gt;check&lt;/span&gt;" style="rounded=0;whiteSpace=wrap;html=1;strokeColor=#d6b656;strokeWidth=2;fillColor=#fff2cc;" parent="1" vertex="1">
          <mxGeometry x="488.5" y="871.5" width="151" height="50" as="geometry"/>
        </mxCell>
        <mxCell id="N-NTgORlRnpznjwGjGEB-46" style="edgeStyle=orthogonalEdgeStyle;rounded=0;orthogonalLoop=1;jettySize=auto;html=1;exitX=0.5;exitY=1;exitDx=0;exitDy=0;entryX=0.5;entryY=0;entryDx=0;entryDy=0;" parent="1" source="N-NTgORlRnpznjwGjGEB-29" target="N-NTgORlRnpznjwGjGEB-28" edge="1">
          <mxGeometry relative="1" as="geometry"/>
        </mxCell>
        <mxCell id="WV-paqwLH-ebp-nXbJU0-1" style="edgeStyle=orthogonalEdgeStyle;rounded=0;orthogonalLoop=1;jettySize=auto;html=1;exitX=0;exitY=0.5;exitDx=0;exitDy=0;entryX=1;entryY=0.5;entryDx=0;entryDy=0;" parent="1" source="N-NTgORlRnpznjwGjGEB-29" target="N-NTgORlRnpznjwGjGEB-27" edge="1">
          <mxGeometry relative="1" as="geometry"/>
        </mxCell>
        <mxCell id="N-NTgORlRnpznjwGjGEB-29" value="&lt;font style=&quot;font-size: 20px&quot;&gt;do&lt;/font&gt;" style="rounded=0;whiteSpace=wrap;html=1;strokeColor=#82b366;strokeWidth=2;fillColor=#d5e8d4;" parent="1" vertex="1">
          <mxGeometry x="488.5" y="729" width="151" height="50" as="geometry"/>
        </mxCell>
        <mxCell id="N-NTgORlRnpznjwGjGEB-48" style="edgeStyle=orthogonalEdgeStyle;rounded=0;orthogonalLoop=1;jettySize=auto;html=1;exitX=0.5;exitY=0;exitDx=0;exitDy=0;entryX=0.5;entryY=1;entryDx=0;entryDy=0;" parent="1" source="N-NTgORlRnpznjwGjGEB-30" target="N-NTgORlRnpznjwGjGEB-27" edge="1">
          <mxGeometry relative="1" as="geometry"/>
        </mxCell>
        <mxCell id="N-NTgORlRnpznjwGjGEB-30" value="&lt;span style=&quot;font-size: 20px&quot;&gt;action&lt;/span&gt;" style="rounded=0;whiteSpace=wrap;html=1;strokeColor=#b85450;strokeWidth=2;fillColor=#f8cecc;" parent="1" vertex="1">
          <mxGeometry x="186.5" y="871.5" width="151" height="50" as="geometry"/>
        </mxCell>
        <mxCell id="N-NTgORlRnpznjwGjGEB-32" value="&lt;span style=&quot;font-size: 18px&quot;&gt;テーマ&lt;br&gt;&lt;/span&gt;&lt;span style=&quot;font-size: 18px&quot;&gt;登録&lt;/span&gt;&lt;span style=&quot;font-size: 18px&quot;&gt;・&lt;/span&gt;&lt;span style=&quot;font-size: 18px&quot;&gt;選択&lt;/span&gt;" style="rounded=0;whiteSpace=wrap;html=1;strokeWidth=3;strokeColor=#3399FF;" parent="1" vertex="1">
          <mxGeometry x="339" y="482" width="150" height="50" as="geometry"/>
        </mxCell>
        <mxCell id="N-NTgORlRnpznjwGjGEB-53" style="edgeStyle=orthogonalEdgeStyle;rounded=0;orthogonalLoop=1;jettySize=auto;html=1;exitX=1;exitY=0.5;exitDx=0;exitDy=0;entryX=1;entryY=0.5;entryDx=0;entryDy=0;" parent="1" source="N-NTgORlRnpznjwGjGEB-33" target="N-NTgORlRnpznjwGjGEB-26" edge="1">
          <mxGeometry relative="1" as="geometry"/>
        </mxCell>
        <mxCell id="N-NTgORlRnpznjwGjGEB-33" value="&lt;span style=&quot;font-size: 20px&quot;&gt;ログアウト&lt;/span&gt;" style="rounded=1;whiteSpace=wrap;html=1;arcSize=50;rotation=0;strokeWidth=3;strokeColor=#FF8000;" parent="1" vertex="1">
          <mxGeometry x="593" y="480.5" width="150" height="50" as="geometry"/>
        </mxCell>
        <mxCell id="N-NTgORlRnpznjwGjGEB-34" value="&lt;span style=&quot;font-size: 18px&quot;&gt;まとめ&lt;/span&gt;" style="rounded=0;whiteSpace=wrap;html=1;strokeColor=#3399FF;strokeWidth=3;" parent="1" vertex="1">
          <mxGeometry x="338.5" y="632" width="150" height="50" as="geometry"/>
        </mxCell>
        <mxCell id="N-NTgORlRnpznjwGjGEB-43" value="" style="endArrow=classic;startArrow=classic;html=1;entryX=0.5;entryY=1;entryDx=0;entryDy=0;exitX=0.5;exitY=0;exitDx=0;exitDy=0;" parent="1" source="N-NTgORlRnpznjwGjGEB-34" target="N-NTgORlRnpznjwGjGEB-32" edge="1">
          <mxGeometry width="50" height="50" relative="1" as="geometry">
            <mxPoint x="487" y="594.5" as="sourcePoint"/>
            <mxPoint x="104" y="1011.5" as="targetPoint"/>
          </mxGeometry>
        </mxCell>
        <mxCell id="N-NTgORlRnpznjwGjGEB-54" value="&lt;font style=&quot;font-size: 16px&quot;&gt;サービス利用&lt;/font&gt;" style="text;html=1;strokeColor=none;fillColor=none;align=center;verticalAlign=middle;whiteSpace=wrap;rounded=0;strokeWidth=16;" parent="1" vertex="1">
          <mxGeometry x="271" y="164.5" width="128" height="20" as="geometry"/>
        </mxCell>
        <mxCell id="N-NTgORlRnpznjwGjGEB-55" value="&lt;span style=&quot;font-size: 16px&quot;&gt;リダイレクト&lt;/span&gt;&lt;span style=&quot;color: rgba(0 , 0 , 0 , 0) ; font-family: monospace ; font-size: 0px ; white-space: nowrap&quot;&gt;%3CmxGraphModel%3E%3Croot%3E%3CmxCell%20id%3D%220%22%2F%3E%3CmxCell%20id%3D%221%22%20parent%3D%220%22%2F%3E%3CmxCell%20id%3D%222%22%20value%3D%22%26lt%3Bfont%20style%3D%26quot%3Bfont-size%3A%2016px%26quot%3B%26gt%3B%E3%82%B5%E3%83%BC%E3%83%93%E3%82%B9%E5%88%A9%E7%94%A8%26lt%3B%2Ffont%26gt%3B%22%20style%3D%22text%3Bhtml%3D1%3BstrokeColor%3Dnone%3BfillColor%3Dnone%3Balign%3Dcenter%3BverticalAlign%3Dmiddle%3BwhiteSpace%3Dwrap%3Brounded%3D0%3BstrokeWidth%3D16%3B%22%20vertex%3D%221%22%20parent%3D%221%22%3E%3CmxGeometry%20x%3D%22271%22%20y%3D%22203.5%22%20width%3D%22128%22%20height%3D%2220%22%20as%3D%22geometry%22%2F%3E%3C%2FmxCell%3E%3C%2Froot%3E%3C%2FmxGraphModel%3E&lt;/span&gt;" style="text;html=1;strokeColor=none;fillColor=none;align=center;verticalAlign=middle;whiteSpace=wrap;rounded=0;strokeWidth=16;" parent="1" vertex="1">
          <mxGeometry x="621.5" y="96.5" width="128" height="20" as="geometry"/>
        </mxCell>
        <mxCell id="N-NTgORlRnpznjwGjGEB-56" value="&lt;span style=&quot;font-size: 16px&quot;&gt;新規&lt;/span&gt;" style="text;html=1;strokeColor=none;fillColor=none;align=center;verticalAlign=middle;whiteSpace=wrap;rounded=0;strokeWidth=16;" parent="1" vertex="1">
          <mxGeometry x="211" y="267" width="128" height="20" as="geometry"/>
        </mxCell>
        <mxCell id="N-NTgORlRnpznjwGjGEB-57" value="&lt;span style=&quot;font-size: 16px&quot;&gt;ログイン&lt;/span&gt;" style="text;html=1;strokeColor=none;fillColor=none;align=center;verticalAlign=middle;whiteSpace=wrap;rounded=0;strokeWidth=16;" parent="1" vertex="1">
          <mxGeometry x="465" y="267" width="128" height="20" as="geometry"/>
        </mxCell>
        <mxCell id="N-NTgORlRnpznjwGjGEB-58" value="&lt;span style=&quot;font-size: 16px&quot;&gt;テーマの選択&lt;/span&gt;" style="text;html=1;strokeColor=none;fillColor=none;align=center;verticalAlign=middle;whiteSpace=wrap;rounded=0;strokeWidth=16;" parent="1" vertex="1">
          <mxGeometry x="275" y="447.5" width="128" height="20" as="geometry"/>
        </mxCell>
        <mxCell id="WV-paqwLH-ebp-nXbJU0-4" value="" style="endArrow=classic;startArrow=classic;html=1;entryX=1.008;entryY=0.967;entryDx=0;entryDy=0;entryPerimeter=0;" parent="1" target="N-NTgORlRnpznjwGjGEB-27" edge="1">
          <mxGeometry width="50" height="50" relative="1" as="geometry">
            <mxPoint x="486" y="870" as="sourcePoint"/>
            <mxPoint x="108" y="1008" as="targetPoint"/>
          </mxGeometry>
        </mxCell>
        <mxCell id="WV-paqwLH-ebp-nXbJU0-6" value="" style="endArrow=classic;html=1;entryX=-0.003;entryY=0.993;entryDx=0;entryDy=0;entryPerimeter=0;" parent="1" target="N-NTgORlRnpznjwGjGEB-29" edge="1">
          <mxGeometry width="50" height="50" relative="1" as="geometry">
            <mxPoint x="339" y="871" as="sourcePoint"/>
            <mxPoint x="389" y="821.5" as="targetPoint"/>
          </mxGeometry>
        </mxCell>
      </root>
    </mxGraphModel>
  </diagram>
</mxfile>
